<mxfile modified="2023-09-13T07:15:31.979Z" host="app.diagrams.net" agent="Mozilla/5.0 (Windows NT 10.0; Win64; x64) AppleWebKit/537.36 (KHTML, like Gecko) Chrome/116.0.0.0 Safari/537.36" etag="rbN1Tbn7_iDj3BXyn1og" version="21.3.7" type="github">
  <diagram id="Ht1M8jgEwFfnCIfOTk4-" name="Page-1">
    <mxGraphModel dx="2100" dy="1895" grid="1" gridSize="10" guides="1" tooltips="1" connect="1" arrows="1" fold="1" page="1" pageScale="1" pageWidth="1169" pageHeight="827" math="0" shadow="0">
      <root>
        <mxCell id="0" />
        <mxCell id="1" parent="0" />
        <mxCell id="kUaae8B-CL2mc0YIdrZu-1" value="" style="ellipse;whiteSpace=wrap;html=1;aspect=fixed;fillColor=#915fce;" vertex="1" parent="1">
          <mxGeometry x="20" y="-620" width="80" height="80" as="geometry" />
        </mxCell>
        <mxCell id="kUaae8B-CL2mc0YIdrZu-4" value="" style="edgeStyle=orthogonalEdgeStyle;rounded=0;orthogonalLoop=1;jettySize=auto;html=1;" edge="1" parent="1" source="kUaae8B-CL2mc0YIdrZu-2" target="kUaae8B-CL2mc0YIdrZu-3">
          <mxGeometry relative="1" as="geometry">
            <Array as="points">
              <mxPoint x="160" y="-580" />
              <mxPoint x="160" y="-580" />
            </Array>
          </mxGeometry>
        </mxCell>
        <mxCell id="kUaae8B-CL2mc0YIdrZu-2" value="Start" style="text;html=1;strokeColor=none;fillColor=none;align=center;verticalAlign=middle;whiteSpace=wrap;rounded=0;" vertex="1" parent="1">
          <mxGeometry x="30" y="-595" width="60" height="30" as="geometry" />
        </mxCell>
        <mxCell id="kUaae8B-CL2mc0YIdrZu-12" style="edgeStyle=orthogonalEdgeStyle;rounded=0;orthogonalLoop=1;jettySize=auto;html=1;" edge="1" parent="1" source="kUaae8B-CL2mc0YIdrZu-3" target="kUaae8B-CL2mc0YIdrZu-8">
          <mxGeometry relative="1" as="geometry" />
        </mxCell>
        <mxCell id="kUaae8B-CL2mc0YIdrZu-3" value="Individual dev / An Organization" style="whiteSpace=wrap;html=1;" vertex="1" parent="1">
          <mxGeometry x="230" y="-610" width="120" height="60" as="geometry" />
        </mxCell>
        <mxCell id="kUaae8B-CL2mc0YIdrZu-6" value="Lands On&lt;br&gt;Publisher Hub" style="text;html=1;strokeColor=none;fillColor=none;align=center;verticalAlign=middle;whiteSpace=wrap;rounded=0;" vertex="1" parent="1">
          <mxGeometry x="120" y="-595" width="90" height="30" as="geometry" />
        </mxCell>
        <mxCell id="kUaae8B-CL2mc0YIdrZu-11" value="" style="group" vertex="1" connectable="0" parent="1">
          <mxGeometry x="438.5" y="-610" width="271.5" height="670" as="geometry" />
        </mxCell>
        <mxCell id="kUaae8B-CL2mc0YIdrZu-8" value="" style="sketch=0;points=[[0,0,0],[0.25,0,0],[0.5,0,0],[0.75,0,0],[1,0,0],[0,1,0],[0.25,1,0],[0.5,1,0],[0.75,1,0],[1,1,0],[0,0.25,0],[0,0.5,0],[0,0.75,0],[1,0.25,0],[1,0.5,0],[1,0.75,0]];outlineConnect=0;fontColor=#232F3E;gradientColor=#F54749;gradientDirection=north;fillColor=#C7131F;strokeColor=#ffffff;dashed=0;verticalLabelPosition=bottom;verticalAlign=top;align=center;html=1;fontSize=12;fontStyle=0;aspect=fixed;shape=mxgraph.aws4.resourceIcon;resIcon=mxgraph.aws4.identity_and_access_management;" vertex="1" parent="kUaae8B-CL2mc0YIdrZu-11">
          <mxGeometry x="10" width="60" height="60" as="geometry" />
        </mxCell>
        <mxCell id="kUaae8B-CL2mc0YIdrZu-10" value="Ajnavidya Auth" style="text;html=1;strokeColor=none;fillColor=none;align=center;verticalAlign=middle;whiteSpace=wrap;rounded=0;" vertex="1" parent="kUaae8B-CL2mc0YIdrZu-11">
          <mxGeometry y="60" width="83" height="24" as="geometry" />
        </mxCell>
        <mxCell id="kUaae8B-CL2mc0YIdrZu-35" value="" style="endArrow=classic;html=1;rounded=0;entryX=0.602;entryY=0.833;entryDx=0;entryDy=0;entryPerimeter=0;" edge="1" parent="kUaae8B-CL2mc0YIdrZu-11" target="kUaae8B-CL2mc0YIdrZu-10">
          <mxGeometry width="50" height="50" relative="1" as="geometry">
            <mxPoint x="50" y="140" as="sourcePoint" />
            <mxPoint x="50" y="84" as="targetPoint" />
          </mxGeometry>
        </mxCell>
        <mxCell id="kUaae8B-CL2mc0YIdrZu-53" value="" style="rhombus;whiteSpace=wrap;html=1;" vertex="1" parent="kUaae8B-CL2mc0YIdrZu-11">
          <mxGeometry x="-14.75" y="262.5" width="112.5" height="90" as="geometry" />
        </mxCell>
        <mxCell id="kUaae8B-CL2mc0YIdrZu-55" value="if(signing in for first time)" style="text;html=1;strokeColor=none;fillColor=none;align=center;verticalAlign=middle;whiteSpace=wrap;rounded=0;" vertex="1" parent="kUaae8B-CL2mc0YIdrZu-11">
          <mxGeometry x="10" y="300" width="59.5" height="15" as="geometry" />
        </mxCell>
        <mxCell id="kUaae8B-CL2mc0YIdrZu-101" style="edgeStyle=orthogonalEdgeStyle;rounded=0;orthogonalLoop=1;jettySize=auto;html=1;" edge="1" parent="kUaae8B-CL2mc0YIdrZu-11" source="kUaae8B-CL2mc0YIdrZu-89">
          <mxGeometry relative="1" as="geometry">
            <mxPoint x="341.4999999999998" y="360" as="targetPoint" />
          </mxGeometry>
        </mxCell>
        <mxCell id="kUaae8B-CL2mc0YIdrZu-89" value="" style="rounded=1;whiteSpace=wrap;html=1;" vertex="1" parent="kUaae8B-CL2mc0YIdrZu-11">
          <mxGeometry x="151.5" y="277.5" width="120" height="60" as="geometry" />
        </mxCell>
        <mxCell id="kUaae8B-CL2mc0YIdrZu-99" value="" style="edgeStyle=orthogonalEdgeStyle;rounded=0;orthogonalLoop=1;jettySize=auto;html=1;" edge="1" parent="kUaae8B-CL2mc0YIdrZu-11" source="kUaae8B-CL2mc0YIdrZu-55" target="kUaae8B-CL2mc0YIdrZu-89">
          <mxGeometry relative="1" as="geometry">
            <mxPoint x="660" y="-302.5" as="targetPoint" />
            <mxPoint x="508.5" y="-302" as="sourcePoint" />
          </mxGeometry>
        </mxCell>
        <mxCell id="kUaae8B-CL2mc0YIdrZu-100" value="Onboarding Page" style="text;html=1;strokeColor=none;fillColor=none;align=center;verticalAlign=middle;whiteSpace=wrap;rounded=0;" vertex="1" parent="kUaae8B-CL2mc0YIdrZu-11">
          <mxGeometry x="181.5" y="293" width="60" height="30" as="geometry" />
        </mxCell>
        <mxCell id="kUaae8B-CL2mc0YIdrZu-16" value="" style="group" vertex="1" connectable="0" parent="1">
          <mxGeometry x="370" y="-780" width="88" height="100" as="geometry" />
        </mxCell>
        <mxCell id="kUaae8B-CL2mc0YIdrZu-13" value="" style="image;aspect=fixed;html=1;points=[];align=center;fontSize=12;image=img/lib/azure2/databases/Azure_Database_PostgreSQL_Server_Group.svg;" vertex="1" parent="kUaae8B-CL2mc0YIdrZu-16">
          <mxGeometry x="14" width="60" height="68" as="geometry" />
        </mxCell>
        <mxCell id="kUaae8B-CL2mc0YIdrZu-15" value="AjnaVidya Auth Users DB" style="text;html=1;strokeColor=none;fillColor=none;align=center;verticalAlign=middle;whiteSpace=wrap;rounded=0;" vertex="1" parent="kUaae8B-CL2mc0YIdrZu-16">
          <mxGeometry y="71.42857142857143" width="88" height="28.571428571428573" as="geometry" />
        </mxCell>
        <mxCell id="kUaae8B-CL2mc0YIdrZu-26" style="edgeStyle=orthogonalEdgeStyle;rounded=0;orthogonalLoop=1;jettySize=auto;html=1;entryX=0.967;entryY=0.616;entryDx=0;entryDy=0;entryPerimeter=0;exitX=0.5;exitY=0;exitDx=0;exitDy=0;" edge="1" parent="1" source="kUaae8B-CL2mc0YIdrZu-18" target="kUaae8B-CL2mc0YIdrZu-13">
          <mxGeometry relative="1" as="geometry">
            <mxPoint x="570" y="-740" as="targetPoint" />
            <Array as="points">
              <mxPoint x="670" y="-740" />
              <mxPoint x="610" y="-740" />
              <mxPoint x="610" y="-738" />
            </Array>
          </mxGeometry>
        </mxCell>
        <mxCell id="kUaae8B-CL2mc0YIdrZu-19" value="" style="edgeStyle=orthogonalEdgeStyle;rounded=0;orthogonalLoop=1;jettySize=auto;html=1;" edge="1" parent="1" source="kUaae8B-CL2mc0YIdrZu-8" target="kUaae8B-CL2mc0YIdrZu-18">
          <mxGeometry relative="1" as="geometry" />
        </mxCell>
        <mxCell id="kUaae8B-CL2mc0YIdrZu-27" style="edgeStyle=orthogonalEdgeStyle;rounded=0;orthogonalLoop=1;jettySize=auto;html=1;entryX=0.5;entryY=0;entryDx=0;entryDy=0;entryPerimeter=0;" edge="1" parent="1" source="kUaae8B-CL2mc0YIdrZu-15" target="kUaae8B-CL2mc0YIdrZu-8">
          <mxGeometry relative="1" as="geometry" />
        </mxCell>
        <mxCell id="kUaae8B-CL2mc0YIdrZu-28" value="" style="group" vertex="1" connectable="0" parent="1">
          <mxGeometry x="610" y="-610" width="120" height="60" as="geometry" />
        </mxCell>
        <mxCell id="kUaae8B-CL2mc0YIdrZu-18" value="" style="whiteSpace=wrap;html=1;verticalAlign=top;fillColor=#C7131F;strokeColor=#ffffff;fontColor=#232F3E;sketch=0;gradientColor=#F54749;gradientDirection=north;dashed=0;fontStyle=0;" vertex="1" parent="kUaae8B-CL2mc0YIdrZu-28">
          <mxGeometry width="120" height="60" as="geometry" />
        </mxCell>
        <mxCell id="kUaae8B-CL2mc0YIdrZu-20" value="Register" style="text;html=1;strokeColor=none;fillColor=none;align=center;verticalAlign=middle;whiteSpace=wrap;rounded=0;" vertex="1" parent="kUaae8B-CL2mc0YIdrZu-28">
          <mxGeometry x="30" y="15" width="60" height="30" as="geometry" />
        </mxCell>
        <mxCell id="kUaae8B-CL2mc0YIdrZu-30" value="" style="whiteSpace=wrap;html=1;verticalAlign=top;fillColor=#C7131F;strokeColor=#ffffff;fontColor=#232F3E;sketch=0;gradientColor=#F54749;gradientDirection=north;dashed=0;fontStyle=0;" vertex="1" parent="1">
          <mxGeometry x="420" y="-470" width="120" height="60" as="geometry" />
        </mxCell>
        <mxCell id="kUaae8B-CL2mc0YIdrZu-31" value="" style="edgeStyle=orthogonalEdgeStyle;rounded=0;orthogonalLoop=1;jettySize=auto;html=1;" edge="1" parent="1" target="kUaae8B-CL2mc0YIdrZu-30">
          <mxGeometry relative="1" as="geometry">
            <mxPoint x="460" y="-530" as="sourcePoint" />
            <Array as="points">
              <mxPoint x="460" y="-520" />
              <mxPoint x="460" y="-520" />
            </Array>
          </mxGeometry>
        </mxCell>
        <mxCell id="kUaae8B-CL2mc0YIdrZu-37" value="" style="edgeStyle=orthogonalEdgeStyle;rounded=0;orthogonalLoop=1;jettySize=auto;html=1;" edge="1" parent="1" source="kUaae8B-CL2mc0YIdrZu-32">
          <mxGeometry relative="1" as="geometry">
            <mxPoint x="710" y="-440" as="targetPoint" />
          </mxGeometry>
        </mxCell>
        <mxCell id="kUaae8B-CL2mc0YIdrZu-54" style="edgeStyle=orthogonalEdgeStyle;rounded=0;orthogonalLoop=1;jettySize=auto;html=1;" edge="1" parent="1" source="kUaae8B-CL2mc0YIdrZu-32">
          <mxGeometry relative="1" as="geometry">
            <mxPoint x="480" y="-350.0000000000001" as="targetPoint" />
          </mxGeometry>
        </mxCell>
        <mxCell id="kUaae8B-CL2mc0YIdrZu-32" value="Sign In" style="text;html=1;strokeColor=none;fillColor=none;align=center;verticalAlign=middle;whiteSpace=wrap;rounded=0;" vertex="1" parent="1">
          <mxGeometry x="450" y="-455" width="60" height="30" as="geometry" />
        </mxCell>
        <mxCell id="kUaae8B-CL2mc0YIdrZu-40" value="" style="group" vertex="1" connectable="0" parent="1">
          <mxGeometry x="720" y="-496.66999999999996" width="79" height="113.33999999999997" as="geometry" />
        </mxCell>
        <mxCell id="kUaae8B-CL2mc0YIdrZu-38" value="" style="verticalLabelPosition=bottom;html=1;verticalAlign=top;strokeWidth=1;align=center;outlineConnect=0;dashed=0;outlineConnect=0;shape=mxgraph.aws3d.securityTokenService;fillColor=#ECECEC;strokeColor=#5E5E5E;aspect=fixed;" vertex="1" parent="kUaae8B-CL2mc0YIdrZu-40">
          <mxGeometry width="78.13" height="83.34" as="geometry" />
        </mxCell>
        <mxCell id="kUaae8B-CL2mc0YIdrZu-39" value="Token" style="text;html=1;strokeColor=none;fillColor=none;align=center;verticalAlign=middle;whiteSpace=wrap;rounded=0;container=1;" vertex="1" collapsed="1" parent="kUaae8B-CL2mc0YIdrZu-40">
          <mxGeometry x="9" y="83.33999999999997" width="70" height="30" as="geometry">
            <mxRectangle x="9" y="83.33999999999997" width="60" height="30" as="alternateBounds" />
          </mxGeometry>
        </mxCell>
        <mxCell id="kUaae8B-CL2mc0YIdrZu-41" value="AjnaVidya Auth Return" style="text;html=1;strokeColor=none;fillColor=none;align=center;verticalAlign=middle;whiteSpace=wrap;rounded=0;" vertex="1" parent="1">
          <mxGeometry x="580" y="-455" width="100" height="30" as="geometry" />
        </mxCell>
        <mxCell id="kUaae8B-CL2mc0YIdrZu-47" value="" style="group" vertex="1" connectable="0" parent="1">
          <mxGeometry x="1045" y="-482" width="65" height="78" as="geometry" />
        </mxCell>
        <mxCell id="kUaae8B-CL2mc0YIdrZu-45" value="" style="sketch=0;html=1;dashed=0;whitespace=wrap;fillColor=#2875E2;strokeColor=#ffffff;points=[[0.005,0.63,0],[0.1,0.2,0],[0.9,0.2,0],[0.5,0,0],[0.995,0.63,0],[0.72,0.99,0],[0.5,1,0],[0.28,0.99,0]];verticalLabelPosition=bottom;align=center;verticalAlign=top;shape=mxgraph.kubernetes.icon;prIcon=user" vertex="1" parent="kUaae8B-CL2mc0YIdrZu-47">
          <mxGeometry x="5" width="50" height="48" as="geometry" />
        </mxCell>
        <mxCell id="kUaae8B-CL2mc0YIdrZu-46" value="user details" style="text;html=1;strokeColor=none;fillColor=none;align=center;verticalAlign=middle;whiteSpace=wrap;rounded=0;" vertex="1" parent="kUaae8B-CL2mc0YIdrZu-47">
          <mxGeometry y="48" width="65" height="30" as="geometry" />
        </mxCell>
        <mxCell id="kUaae8B-CL2mc0YIdrZu-48" value="" style="edgeStyle=orthogonalEdgeStyle;fontSize=12;html=1;endArrow=blockThin;endFill=1;rounded=0;strokeWidth=2;endSize=4;startSize=4;dashed=0;strokeColor=#4284F3;exitX=0.5;exitY=0;exitDx=0;exitDy=0;exitPerimeter=0;" edge="1" parent="1" source="kUaae8B-CL2mc0YIdrZu-45">
          <mxGeometry width="100" relative="1" as="geometry">
            <mxPoint x="1010" y="-520" as="sourcePoint" />
            <mxPoint x="1075" y="-540" as="targetPoint" />
          </mxGeometry>
        </mxCell>
        <mxCell id="kUaae8B-CL2mc0YIdrZu-63" style="edgeStyle=orthogonalEdgeStyle;rounded=0;orthogonalLoop=1;jettySize=auto;html=1;" edge="1" parent="1" source="kUaae8B-CL2mc0YIdrZu-62">
          <mxGeometry relative="1" as="geometry">
            <mxPoint x="1077.5" y="-710" as="targetPoint" />
          </mxGeometry>
        </mxCell>
        <mxCell id="kUaae8B-CL2mc0YIdrZu-65" value="checks&amp;nbsp;" style="text;html=1;strokeColor=none;fillColor=none;align=center;verticalAlign=middle;whiteSpace=wrap;rounded=0;" vertex="1" parent="1">
          <mxGeometry x="1018" y="-660" width="60" height="30" as="geometry" />
        </mxCell>
        <mxCell id="kUaae8B-CL2mc0YIdrZu-66" value="if User is Onboarded on Platform" style="text;html=1;strokeColor=none;fillColor=none;align=center;verticalAlign=middle;whiteSpace=wrap;rounded=0;" vertex="1" parent="1">
          <mxGeometry x="1090" y="-660" width="60" height="30" as="geometry" />
        </mxCell>
        <mxCell id="kUaae8B-CL2mc0YIdrZu-72" value="" style="edgeStyle=orthogonalEdgeStyle;rounded=0;orthogonalLoop=1;jettySize=auto;html=1;" edge="1" parent="1" source="kUaae8B-CL2mc0YIdrZu-69" target="kUaae8B-CL2mc0YIdrZu-71">
          <mxGeometry relative="1" as="geometry" />
        </mxCell>
        <mxCell id="kUaae8B-CL2mc0YIdrZu-69" value="" style="rhombus;whiteSpace=wrap;html=1;" vertex="1" parent="1">
          <mxGeometry x="1037" y="-792" width="80" height="80" as="geometry" />
        </mxCell>
        <mxCell id="kUaae8B-CL2mc0YIdrZu-77" style="edgeStyle=orthogonalEdgeStyle;rounded=0;orthogonalLoop=1;jettySize=auto;html=1;" edge="1" parent="1" source="kUaae8B-CL2mc0YIdrZu-70">
          <mxGeometry relative="1" as="geometry">
            <mxPoint x="1240" y="-752" as="targetPoint" />
          </mxGeometry>
        </mxCell>
        <mxCell id="kUaae8B-CL2mc0YIdrZu-70" value="condition=1" style="text;html=1;strokeColor=none;fillColor=none;align=center;verticalAlign=middle;whiteSpace=wrap;rounded=0;" vertex="1" parent="1">
          <mxGeometry x="1048" y="-767" width="60" height="30" as="geometry" />
        </mxCell>
        <mxCell id="kUaae8B-CL2mc0YIdrZu-71" value="" style="whiteSpace=wrap;html=1;" vertex="1" parent="1">
          <mxGeometry x="857" y="-782" width="120" height="60" as="geometry" />
        </mxCell>
        <mxCell id="kUaae8B-CL2mc0YIdrZu-73" value="Publisher Hub" style="text;html=1;strokeColor=none;fillColor=none;align=center;verticalAlign=middle;whiteSpace=wrap;rounded=0;" vertex="1" parent="1">
          <mxGeometry x="884" y="-767" width="60" height="30" as="geometry" />
        </mxCell>
        <mxCell id="kUaae8B-CL2mc0YIdrZu-74" value="redirects" style="text;html=1;strokeColor=none;fillColor=none;align=center;verticalAlign=middle;whiteSpace=wrap;rounded=0;" vertex="1" parent="1">
          <mxGeometry x="985" y="-760" width="60" height="30" as="geometry" />
        </mxCell>
        <mxCell id="kUaae8B-CL2mc0YIdrZu-75" value="true" style="text;html=1;strokeColor=none;fillColor=none;align=center;verticalAlign=middle;whiteSpace=wrap;rounded=0;" vertex="1" parent="1">
          <mxGeometry x="977" y="-780" width="60" height="30" as="geometry" />
        </mxCell>
        <mxCell id="kUaae8B-CL2mc0YIdrZu-79" value="" style="group" vertex="1" connectable="0" parent="1">
          <mxGeometry x="1250" y="-774.25" width="60" height="854.25" as="geometry" />
        </mxCell>
        <mxCell id="kUaae8B-CL2mc0YIdrZu-76" value="" style="sketch=0;outlineConnect=0;fontColor=#232F3E;gradientColor=none;fillColor=#4D27AA;strokeColor=none;dashed=0;verticalLabelPosition=bottom;verticalAlign=top;align=center;html=1;fontSize=12;fontStyle=0;aspect=fixed;pointerEvents=1;shape=mxgraph.aws4.data_exchange_for_apis;" vertex="1" parent="kUaae8B-CL2mc0YIdrZu-79">
          <mxGeometry x="11" width="37" height="37" as="geometry" />
        </mxCell>
        <mxCell id="kUaae8B-CL2mc0YIdrZu-78" value="isProfileCompleted" style="text;html=1;strokeColor=none;fillColor=none;align=center;verticalAlign=middle;whiteSpace=wrap;rounded=0;" vertex="1" parent="kUaae8B-CL2mc0YIdrZu-79">
          <mxGeometry y="28.5" width="60" height="30" as="geometry" />
        </mxCell>
        <mxCell id="kUaae8B-CL2mc0YIdrZu-80" value="" style="group" vertex="1" connectable="0" parent="1">
          <mxGeometry x="1030" y="-598.5" width="95" height="58.5" as="geometry" />
        </mxCell>
        <mxCell id="kUaae8B-CL2mc0YIdrZu-52" value="isAccessAllowed" style="text;html=1;strokeColor=none;fillColor=none;align=center;verticalAlign=middle;whiteSpace=wrap;rounded=0;" vertex="1" parent="kUaae8B-CL2mc0YIdrZu-80">
          <mxGeometry y="28.5" width="95" height="30" as="geometry" />
        </mxCell>
        <mxCell id="kUaae8B-CL2mc0YIdrZu-62" value="" style="sketch=0;outlineConnect=0;fontColor=#232F3E;gradientColor=none;fillColor=#4D27AA;strokeColor=none;dashed=0;verticalLabelPosition=bottom;verticalAlign=top;align=center;html=1;fontSize=12;fontStyle=0;aspect=fixed;pointerEvents=1;shape=mxgraph.aws4.data_exchange_for_apis;" vertex="1" parent="kUaae8B-CL2mc0YIdrZu-80">
          <mxGeometry x="29" width="37" height="37" as="geometry" />
        </mxCell>
        <mxCell id="kUaae8B-CL2mc0YIdrZu-81" value="" style="group" vertex="1" connectable="0" parent="1">
          <mxGeometry x="800" y="-510" width="240" height="60" as="geometry" />
        </mxCell>
        <object placeholders="1" c4Type="Decrypt" c4Technology="Decrypt" c4Description="isLogIn Middleware" label="&lt;div style=&quot;text-align: left&quot;&gt;&lt;div style=&quot;text-align: center&quot;&gt;&lt;b&gt;%c4Description%&lt;/b&gt;&lt;/div&gt;&lt;div style=&quot;text-align: center&quot;&gt;[%c4Technology%]&lt;/div&gt;&lt;/div&gt;" id="kUaae8B-CL2mc0YIdrZu-43">
          <mxCell style="endArrow=blockThin;html=1;fontSize=10;fontColor=#404040;strokeWidth=1;endFill=1;strokeColor=#828282;elbow=vertical;metaEdit=1;endSize=14;startSize=14;jumpStyle=arc;jumpSize=16;rounded=0;edgeStyle=orthogonalEdgeStyle;" edge="1" parent="kUaae8B-CL2mc0YIdrZu-81">
            <mxGeometry width="240" relative="1" as="geometry">
              <mxPoint y="60" as="sourcePoint" />
              <mxPoint x="240" y="60" as="targetPoint" />
            </mxGeometry>
          </mxCell>
        </object>
        <mxCell id="kUaae8B-CL2mc0YIdrZu-64" value="" style="sketch=0;outlineConnect=0;fontColor=#232F3E;gradientColor=none;fillColor=#4D27AA;strokeColor=none;dashed=0;verticalLabelPosition=bottom;verticalAlign=top;align=center;html=1;fontSize=12;fontStyle=0;aspect=fixed;pointerEvents=1;shape=mxgraph.aws4.data_exchange_for_apis;" vertex="1" parent="kUaae8B-CL2mc0YIdrZu-81">
          <mxGeometry x="90" width="48" height="48" as="geometry" />
        </mxCell>
        <mxCell id="kUaae8B-CL2mc0YIdrZu-82" value="false" style="text;html=1;align=center;verticalAlign=middle;resizable=0;points=[];autosize=1;strokeColor=none;fillColor=none;" vertex="1" parent="1">
          <mxGeometry x="1115" y="-772" width="50" height="30" as="geometry" />
        </mxCell>
        <mxCell id="kUaae8B-CL2mc0YIdrZu-83" value="&lt;font style=&quot;font-size: 7px;&quot;&gt;comes into play&lt;/font&gt;" style="text;html=1;strokeColor=none;fillColor=none;align=center;verticalAlign=middle;whiteSpace=wrap;rounded=0;" vertex="1" parent="1">
          <mxGeometry x="1130" y="-752" width="61" height="10" as="geometry" />
        </mxCell>
        <mxCell id="kUaae8B-CL2mc0YIdrZu-86" value="(condition)" style="rhombus;whiteSpace=wrap;html=1;" vertex="1" parent="1">
          <mxGeometry x="1240" y="-660.75" width="80" height="80" as="geometry" />
        </mxCell>
        <mxCell id="kUaae8B-CL2mc0YIdrZu-87" value="" style="edgeStyle=orthogonalEdgeStyle;rounded=0;orthogonalLoop=1;jettySize=auto;html=1;" edge="1" parent="1" source="kUaae8B-CL2mc0YIdrZu-78" target="kUaae8B-CL2mc0YIdrZu-86">
          <mxGeometry relative="1" as="geometry" />
        </mxCell>
        <mxCell id="kUaae8B-CL2mc0YIdrZu-97" value="" style="edgeStyle=orthogonalEdgeStyle;rounded=0;orthogonalLoop=1;jettySize=auto;html=1;" edge="1" parent="1" source="kUaae8B-CL2mc0YIdrZu-89" target="kUaae8B-CL2mc0YIdrZu-96">
          <mxGeometry relative="1" as="geometry" />
        </mxCell>
        <mxCell id="kUaae8B-CL2mc0YIdrZu-96" value="" style="whiteSpace=wrap;html=1;rounded=1;" vertex="1" parent="1">
          <mxGeometry x="850" y="-370" width="120" height="60" as="geometry" />
        </mxCell>
      </root>
    </mxGraphModel>
  </diagram>
</mxfile>
